<svg id="Layer_1" data-name="Layer 1" xmlns="http://www.w3.org/2000/svg" xmlns:xlink="http://www.w3.org/1999/xlink" viewBox="0 0 710.19 694.71"><defs><style>.cls-1{fill:#662d91;}.cls-2{fill:url(#linear-gradient);}</style><linearGradient id="linear-gradient" x1="50.78" y1="464.87" x2="715.98" y2="216.11" gradientUnits="userSpaceOnUse"><stop offset="0" stop-color="#fff"/><stop offset="1" stop-color="#39b54a"/></linearGradient></defs><title>solosis</title><path class="cls-1" d="M126.63,296.23s13,5,15,17,1,29,0,43-10,28-13,32-6,9-10,11-5,2-9,1-12-12-14-19-6.43-26.54-1-48C100.18,311.26,120.38,292,126.63,296.23Z"/><path class="cls-1" d="M404.13,329.73c16,1,23,20,24,25s5,24,0,42-13,35-20,41-12,6-17,5a19.64,19.64,0,0,1-13-9c-3-5-19-29-10-62s27-41,31-42S404.13,329.73,404.13,329.73Z"/><path class="cls-1" d="M258.13,249.73c-74,62-90,123-90,123s33,74,54,95c0,0,60-71,78-78Z"/><path class="cls-2" d="M664.13,158.73c-57-100-145-139-256-156s-230,51-230,51c-166,96-186,284-176,340s26,166,149,237,223,78,320,45,175-119,213-203S721.13,258.73,664.13,158.73Zm-115,387c-73,74-137,72-183,71s-93-37-93-37,2,12-49,3-106-58-132-105-30-128-15-190,104-137,145-155,89-26,147,2c0,0,34-18,102,7s126,96,142,161S622.13,471.73,549.13,545.73Z"/><path class="cls-1" d="M542.13,274.73c16,33,1,44-6,51-11,11-28,5-38,1s-22-16-29-29-15-48-8-80,37-53,64-49,15,6,15,6-10,9,0-5,35-33,53-40,14,1,14,1a333.1,333.1,0,0,0-24,45c-12,27-7,5-7,5,34,9,32,39,32,44s1,17-8,29-18,26-36,26-25-7-25-7"/></svg>